<svg version="1.2" xmlns="http://www.w3.org/2000/svg" viewBox="0 0 110 140" width="110" height="140"><style>.a{fill:#ebdac5}</style><path fill-rule="evenodd" class="a" d="m86.5 55l-52.6-14.6c-1.5-0.4-2.9-1.1-4.2-2.1-1.2-0.9-2.2-2.1-3-3.5-0.8-1.4-1.3-2.9-1.5-4.4-0.2-1.6-0.1-3.2 0.3-4.7l0.5-1.8c0.5-1.6 1.2-3 2.1-4.2 1-1.3 2.2-2.3 3.6-3.1 1.4-0.8 2.9-1.3 4.4-1.5 1.6-0.2 3.2 0 4.7 0.4l52.6 14.5c1.5 0.4 2.9 1.1 4.2 2.1 1.2 1 2.3 2.2 3.1 3.5 0.7 1.4 1.2 2.9 1.4 4.5 0.2 1.5 0.1 3.1-0.3 4.7l-0.5 1.8c-0.4 1.5-1.1 2.9-2.1 4.2-1 1.2-2.2 2.2-3.6 3-1.3 0.8-2.8 1.3-4.4 1.5-1.6 0.2-3.2 0.1-4.7-0.3zm-46.8-35.4q-1.5-0.4-3-0.2-1.6 0.2-2.9 0.9-1.4 0.8-2.3 2-0.9 1.2-1.4 2.7l-0.5 1.8q-0.4 1.5-0.2 3 0.2 1.6 1 2.9 0.7 1.3 2 2.3 1.2 0.9 2.7 1.3l52.6 14.5q1.4 0.4 3 0.3 1.5-0.2 2.8-1 1.4-0.8 2.3-2 1-1.2 1.4-2.7l0.5-1.8q0.4-1.5 0.2-3-0.2-1.5-1-2.9-0.7-1.3-1.9-2.2-1.2-1-2.7-1.4z"/><path class="a" d="m41.5 115.6c-0.6-0.1-1-0.5-1.3-1-0.3-0.4-0.4-1-0.2-1.6 0.1-0.5 0.5-1 1-1.3 0.5-0.2 1.1-0.3 1.6-0.2 1.7 0.5 3.5 0.3 5.1-0.6 1.5-0.9 2.7-2.3 3.1-4 0.5-1.7 0.3-3.6-0.6-5.1-0.9-1.5-2.3-2.7-4-3.1-2.9-0.8-5.3-2.6-6.7-5.2-1.5-2.5-1.8-5.5-1.1-8.3 0.8-2.8 2.7-5.2 5.2-6.7 2.6-1.4 5.6-1.7 8.4-0.9 1.7 0.4 3.5 0.2 5.1-0.7 1.5-0.8 2.6-2.3 3.1-4 0.5-1.7 0.2-3.5-0.6-5.1-0.9-1.5-2.4-2.6-4.1-3.1-2.8-0.8-5.1-2.6-6.6-5.2-1.4-2.5-1.8-5.5-1-8.3 0.8-2.8 2.6-5.1 5.1-6.6 2.6-1.4 5.6-1.8 8.4-1 0.5 0.1 1 0.5 1.2 1 0.3 0.5 0.4 1.1 0.2 1.6-0.1 0.6-0.5 1-1 1.3-0.5 0.3-1 0.3-1.6 0.2-1.7-0.5-3.5-0.2-5.1 0.6-1.5 0.9-2.6 2.4-3.1 4.1-0.5 1.7-0.2 3.5 0.6 5 0.9 1.6 2.4 2.7 4.1 3.2 2.8 0.8 5.1 2.6 6.6 5.1 1.4 2.5 1.8 5.5 1 8.3-0.8 2.8-2.6 5.2-5.1 6.6-2.6 1.5-5.6 1.8-8.3 1.1-1.8-0.5-3.6-0.3-5.2 0.6-1.5 0.8-2.7 2.3-3.1 4-0.5 1.7-0.3 3.6 0.6 5.1 0.9 1.6 2.4 2.7 4.1 3.2 2.8 0.7 5.2 2.6 6.6 5.1 1.4 2.5 1.8 5.5 1 8.3-0.7 2.8-2.6 5.2-5.1 6.6-2.5 1.4-5.5 1.8-8.3 1z"/></svg>